<mxfile host="app.diagrams.net" agent="Mozilla/5.0 (Windows NT 10.0; Win64; x64) AppleWebKit/537.36 (KHTML, like Gecko) Chrome/133.0.0.0 Safari/537.36 Edg/133.0.0.0" version="26.0.16">
  <diagram name="Страница — 1" id="1bNecaMCkvNrvf7UnFLv">
    <mxGraphModel dx="2493" dy="747" grid="1" gridSize="10" guides="1" tooltips="1" connect="1" arrows="1" fold="1" page="1" pageScale="1" pageWidth="827" pageHeight="1169" math="0" shadow="0">
      <root>
        <mxCell id="0" />
        <mxCell id="1" parent="0" />
        <mxCell id="4qVhP21Fqn_u6X29Lw7A-1" value="Новый пользователь" style="rounded=0;whiteSpace=wrap;html=1;" parent="1" vertex="1">
          <mxGeometry x="-800" y="40" width="120" height="60" as="geometry" />
        </mxCell>
        <mxCell id="4qVhP21Fqn_u6X29Lw7A-4" value="" style="edgeStyle=orthogonalEdgeStyle;rounded=0;orthogonalLoop=1;jettySize=auto;html=1;" parent="1" source="4qVhP21Fqn_u6X29Lw7A-2" target="4qVhP21Fqn_u6X29Lw7A-3" edge="1">
          <mxGeometry relative="1" as="geometry" />
        </mxCell>
        <mxCell id="4qVhP21Fqn_u6X29Lw7A-2" value="" style="ellipse;html=1;shape=endState;fillColor=#000000;strokeColor=#ff0000;" parent="1" vertex="1">
          <mxGeometry x="-755" y="130" width="30" height="30" as="geometry" />
        </mxCell>
        <mxCell id="4qVhP21Fqn_u6X29Lw7A-8" value="" style="edgeStyle=orthogonalEdgeStyle;rounded=0;orthogonalLoop=1;jettySize=auto;html=1;" parent="1" source="4qVhP21Fqn_u6X29Lw7A-3" target="4qVhP21Fqn_u6X29Lw7A-5" edge="1">
          <mxGeometry relative="1" as="geometry" />
        </mxCell>
        <mxCell id="4qVhP21Fqn_u6X29Lw7A-3" value="Проверка авторизации" style="rounded=0;whiteSpace=wrap;html=1;" parent="1" vertex="1">
          <mxGeometry x="-800" y="200" width="120" height="60" as="geometry" />
        </mxCell>
        <mxCell id="4qVhP21Fqn_u6X29Lw7A-5" value="Есть ли у пользователя аккаунт" style="rhombus;whiteSpace=wrap;html=1;fontColor=#000000;fillColor=#ffffc0;strokeColor=#ff0000;" parent="1" vertex="1">
          <mxGeometry x="-800" y="310" width="120" height="90" as="geometry" />
        </mxCell>
        <mxCell id="4qVhP21Fqn_u6X29Lw7A-6" value="Нет" style="edgeStyle=orthogonalEdgeStyle;html=1;align=left;verticalAlign=bottom;endArrow=open;endSize=8;strokeColor=#ff0000;rounded=0;entryX=0;entryY=0.5;entryDx=0;entryDy=0;" parent="1" source="4qVhP21Fqn_u6X29Lw7A-5" target="4qVhP21Fqn_u6X29Lw7A-9" edge="1">
          <mxGeometry x="-1" relative="1" as="geometry">
            <mxPoint x="240" y="340" as="targetPoint" />
            <mxPoint as="offset" />
          </mxGeometry>
        </mxCell>
        <mxCell id="4qVhP21Fqn_u6X29Lw7A-7" value="Да" style="edgeStyle=orthogonalEdgeStyle;html=1;align=left;verticalAlign=top;endArrow=open;endSize=8;strokeColor=#ff0000;rounded=0;entryX=0.5;entryY=0;entryDx=0;entryDy=0;" parent="1" source="4qVhP21Fqn_u6X29Lw7A-5" target="4qVhP21Fqn_u6X29Lw7A-11" edge="1">
          <mxGeometry x="-1" relative="1" as="geometry">
            <mxPoint x="100" y="420" as="targetPoint" />
          </mxGeometry>
        </mxCell>
        <mxCell id="4qVhP21Fqn_u6X29Lw7A-13" value="" style="edgeStyle=orthogonalEdgeStyle;rounded=0;orthogonalLoop=1;jettySize=auto;html=1;" parent="1" source="4qVhP21Fqn_u6X29Lw7A-9" target="4qVhP21Fqn_u6X29Lw7A-12" edge="1">
          <mxGeometry relative="1" as="geometry" />
        </mxCell>
        <mxCell id="4qVhP21Fqn_u6X29Lw7A-9" value="Регистрация" style="rounded=0;whiteSpace=wrap;html=1;" parent="1" vertex="1">
          <mxGeometry x="-580" y="325" width="120" height="60" as="geometry" />
        </mxCell>
        <mxCell id="4qVhP21Fqn_u6X29Lw7A-16" style="edgeStyle=orthogonalEdgeStyle;rounded=0;orthogonalLoop=1;jettySize=auto;html=1;exitX=1;exitY=0.5;exitDx=0;exitDy=0;entryX=0;entryY=0.5;entryDx=0;entryDy=0;" parent="1" source="4qVhP21Fqn_u6X29Lw7A-11" target="4qVhP21Fqn_u6X29Lw7A-14" edge="1">
          <mxGeometry relative="1" as="geometry" />
        </mxCell>
        <mxCell id="4qVhP21Fqn_u6X29Lw7A-11" value="Вход" style="rounded=0;whiteSpace=wrap;html=1;" parent="1" vertex="1">
          <mxGeometry x="-800" y="450" width="120" height="60" as="geometry" />
        </mxCell>
        <mxCell id="4qVhP21Fqn_u6X29Lw7A-33" style="edgeStyle=orthogonalEdgeStyle;rounded=0;orthogonalLoop=1;jettySize=auto;html=1;exitX=0.5;exitY=1;exitDx=0;exitDy=0;entryX=0.5;entryY=0;entryDx=0;entryDy=0;" parent="1" source="4qVhP21Fqn_u6X29Lw7A-12" target="4qVhP21Fqn_u6X29Lw7A-14" edge="1">
          <mxGeometry relative="1" as="geometry" />
        </mxCell>
        <mxCell id="4qVhP21Fqn_u6X29Lw7A-12" value="Вход" style="rounded=0;whiteSpace=wrap;html=1;" parent="1" vertex="1">
          <mxGeometry x="-340" y="325" width="120" height="60" as="geometry" />
        </mxCell>
        <mxCell id="4qVhP21Fqn_u6X29Lw7A-18" style="edgeStyle=orthogonalEdgeStyle;rounded=0;orthogonalLoop=1;jettySize=auto;html=1;exitX=0.5;exitY=1;exitDx=0;exitDy=0;entryX=0.5;entryY=0;entryDx=0;entryDy=0;" parent="1" source="4qVhP21Fqn_u6X29Lw7A-14" target="4qVhP21Fqn_u6X29Lw7A-17" edge="1">
          <mxGeometry relative="1" as="geometry" />
        </mxCell>
        <mxCell id="4qVhP21Fqn_u6X29Lw7A-14" value="Просмотр каталога" style="rounded=0;whiteSpace=wrap;html=1;" parent="1" vertex="1">
          <mxGeometry x="-340" y="450" width="120" height="60" as="geometry" />
        </mxCell>
        <mxCell id="4qVhP21Fqn_u6X29Lw7A-32" style="edgeStyle=orthogonalEdgeStyle;rounded=0;orthogonalLoop=1;jettySize=auto;html=1;exitX=0;exitY=0.5;exitDx=0;exitDy=0;entryX=1;entryY=0.5;entryDx=0;entryDy=0;" parent="1" source="4qVhP21Fqn_u6X29Lw7A-17" target="4qVhP21Fqn_u6X29Lw7A-19" edge="1">
          <mxGeometry relative="1" as="geometry" />
        </mxCell>
        <mxCell id="4qVhP21Fqn_u6X29Lw7A-17" value="Выбор компьютера" style="rounded=0;whiteSpace=wrap;html=1;" parent="1" vertex="1">
          <mxGeometry x="-340" y="550" width="120" height="60" as="geometry" />
        </mxCell>
        <mxCell id="4qVhP21Fqn_u6X29Lw7A-27" style="edgeStyle=orthogonalEdgeStyle;rounded=0;orthogonalLoop=1;jettySize=auto;html=1;exitX=0.5;exitY=1;exitDx=0;exitDy=0;entryX=0.5;entryY=0;entryDx=0;entryDy=0;" parent="1" source="4qVhP21Fqn_u6X29Lw7A-19" target="4qVhP21Fqn_u6X29Lw7A-22" edge="1">
          <mxGeometry relative="1" as="geometry" />
        </mxCell>
        <mxCell id="4qVhP21Fqn_u6X29Lw7A-19" value="Покупка выбранного&amp;nbsp;&lt;div&gt;компьютера&lt;/div&gt;" style="rounded=0;whiteSpace=wrap;html=1;" parent="1" vertex="1">
          <mxGeometry x="-620" y="550" width="120" height="60" as="geometry" />
        </mxCell>
        <mxCell id="4qVhP21Fqn_u6X29Lw7A-22" value="Есть ли добавленное платежное средство" style="rhombus;whiteSpace=wrap;html=1;fontColor=#000000;fillColor=#ffffc0;strokeColor=#ff0000;" parent="1" vertex="1">
          <mxGeometry x="-645" y="670" width="170" height="120" as="geometry" />
        </mxCell>
        <mxCell id="4qVhP21Fqn_u6X29Lw7A-23" value="Нет" style="edgeStyle=orthogonalEdgeStyle;html=1;align=left;verticalAlign=bottom;endArrow=open;endSize=8;strokeColor=#ff0000;rounded=0;entryX=0;entryY=0.5;entryDx=0;entryDy=0;" parent="1" source="4qVhP21Fqn_u6X29Lw7A-22" target="4qVhP21Fqn_u6X29Lw7A-25" edge="1">
          <mxGeometry x="-1" relative="1" as="geometry">
            <mxPoint x="360" y="690" as="targetPoint" />
            <mxPoint as="offset" />
          </mxGeometry>
        </mxCell>
        <mxCell id="4qVhP21Fqn_u6X29Lw7A-24" value="Да" style="edgeStyle=orthogonalEdgeStyle;html=1;align=left;verticalAlign=top;endArrow=open;endSize=8;strokeColor=#ff0000;rounded=0;entryX=0.5;entryY=0;entryDx=0;entryDy=0;" parent="1" source="4qVhP21Fqn_u6X29Lw7A-22" target="4qVhP21Fqn_u6X29Lw7A-26" edge="1">
          <mxGeometry x="-1" relative="1" as="geometry">
            <mxPoint x="220" y="750" as="targetPoint" />
          </mxGeometry>
        </mxCell>
        <mxCell id="4qVhP21Fqn_u6X29Lw7A-29" style="edgeStyle=orthogonalEdgeStyle;rounded=0;orthogonalLoop=1;jettySize=auto;html=1;exitX=0.5;exitY=1;exitDx=0;exitDy=0;entryX=0.5;entryY=0;entryDx=0;entryDy=0;" parent="1" source="4qVhP21Fqn_u6X29Lw7A-25" target="4qVhP21Fqn_u6X29Lw7A-28" edge="1">
          <mxGeometry relative="1" as="geometry" />
        </mxCell>
        <mxCell id="4qVhP21Fqn_u6X29Lw7A-25" value="Добавить платежное средство" style="rounded=0;whiteSpace=wrap;html=1;" parent="1" vertex="1">
          <mxGeometry x="-360" y="700" width="120" height="60" as="geometry" />
        </mxCell>
        <mxCell id="4qVhP21Fqn_u6X29Lw7A-30" style="edgeStyle=orthogonalEdgeStyle;rounded=0;orthogonalLoop=1;jettySize=auto;html=1;exitX=1;exitY=0.5;exitDx=0;exitDy=0;entryX=0;entryY=0.5;entryDx=0;entryDy=0;" parent="1" source="4qVhP21Fqn_u6X29Lw7A-26" target="4qVhP21Fqn_u6X29Lw7A-28" edge="1">
          <mxGeometry relative="1" as="geometry" />
        </mxCell>
        <mxCell id="4qVhP21Fqn_u6X29Lw7A-26" value="Выбрать нужный вариант платёжного средства" style="rounded=0;whiteSpace=wrap;html=1;" parent="1" vertex="1">
          <mxGeometry x="-620" y="860" width="120" height="60" as="geometry" />
        </mxCell>
        <mxCell id="4qVhP21Fqn_u6X29Lw7A-37" style="edgeStyle=orthogonalEdgeStyle;rounded=0;orthogonalLoop=1;jettySize=auto;html=1;exitX=1;exitY=0.5;exitDx=0;exitDy=0;entryX=0;entryY=0.5;entryDx=0;entryDy=0;" parent="1" source="4qVhP21Fqn_u6X29Lw7A-28" target="4qVhP21Fqn_u6X29Lw7A-31" edge="1">
          <mxGeometry relative="1" as="geometry" />
        </mxCell>
        <mxCell id="4qVhP21Fqn_u6X29Lw7A-28" value="Оплатить заказ" style="rounded=0;whiteSpace=wrap;html=1;" parent="1" vertex="1">
          <mxGeometry x="-360" y="860" width="120" height="60" as="geometry" />
        </mxCell>
        <mxCell id="4qVhP21Fqn_u6X29Lw7A-36" style="edgeStyle=orthogonalEdgeStyle;rounded=0;orthogonalLoop=1;jettySize=auto;html=1;exitX=0.5;exitY=1;exitDx=0;exitDy=0;entryX=0.5;entryY=0;entryDx=0;entryDy=0;" parent="1" source="4qVhP21Fqn_u6X29Lw7A-31" target="4qVhP21Fqn_u6X29Lw7A-35" edge="1">
          <mxGeometry relative="1" as="geometry" />
        </mxCell>
        <mxCell id="4qVhP21Fqn_u6X29Lw7A-31" value="Оформить доставку" style="rounded=0;whiteSpace=wrap;html=1;" parent="1" vertex="1">
          <mxGeometry x="-160" y="860" width="120" height="60" as="geometry" />
        </mxCell>
        <mxCell id="4qVhP21Fqn_u6X29Lw7A-39" style="edgeStyle=orthogonalEdgeStyle;rounded=0;orthogonalLoop=1;jettySize=auto;html=1;exitX=0.5;exitY=1;exitDx=0;exitDy=0;entryX=0.5;entryY=0;entryDx=0;entryDy=0;" parent="1" source="4qVhP21Fqn_u6X29Lw7A-35" target="4qVhP21Fqn_u6X29Lw7A-38" edge="1">
          <mxGeometry relative="1" as="geometry" />
        </mxCell>
        <mxCell id="4qVhP21Fqn_u6X29Lw7A-35" value="Оставить отзыв о сервисе" style="rounded=0;whiteSpace=wrap;html=1;" parent="1" vertex="1">
          <mxGeometry x="-160" y="980" width="120" height="60" as="geometry" />
        </mxCell>
        <mxCell id="4qVhP21Fqn_u6X29Lw7A-38" value="Выход" style="rounded=0;whiteSpace=wrap;html=1;" parent="1" vertex="1">
          <mxGeometry x="-160" y="1090" width="120" height="60" as="geometry" />
        </mxCell>
        <mxCell id="4qVhP21Fqn_u6X29Lw7A-40" value="Пользователь" style="shape=umlActor;verticalLabelPosition=bottom;verticalAlign=top;html=1;" parent="1" vertex="1">
          <mxGeometry x="-490" y="1415" width="30" height="70" as="geometry" />
        </mxCell>
        <mxCell id="4qVhP21Fqn_u6X29Lw7A-41" value="Выбрать компьютер" style="ellipse;whiteSpace=wrap;html=1;" parent="1" vertex="1">
          <mxGeometry x="-390" y="1290" width="120" height="80" as="geometry" />
        </mxCell>
        <mxCell id="4qVhP21Fqn_u6X29Lw7A-42" value="Прочитать отзывы" style="ellipse;whiteSpace=wrap;html=1;" parent="1" vertex="1">
          <mxGeometry x="-390" y="1410" width="120" height="80" as="geometry" />
        </mxCell>
        <mxCell id="4qVhP21Fqn_u6X29Lw7A-43" value="Прочитать о компании" style="ellipse;whiteSpace=wrap;html=1;" parent="1" vertex="1">
          <mxGeometry x="-390" y="1520" width="120" height="80" as="geometry" />
        </mxCell>
        <mxCell id="4qVhP21Fqn_u6X29Lw7A-44" value="Создать аккаунт" style="ellipse;whiteSpace=wrap;html=1;" parent="1" vertex="1">
          <mxGeometry x="-680" y="1290" width="120" height="80" as="geometry" />
        </mxCell>
        <mxCell id="4qVhP21Fqn_u6X29Lw7A-45" value="Зазакать компьютер" style="ellipse;whiteSpace=wrap;html=1;" parent="1" vertex="1">
          <mxGeometry x="-680" y="1410" width="120" height="80" as="geometry" />
        </mxCell>
        <mxCell id="4qVhP21Fqn_u6X29Lw7A-46" value="Заказать периферию" style="ellipse;whiteSpace=wrap;html=1;" parent="1" vertex="1">
          <mxGeometry x="-680" y="1520" width="120" height="80" as="geometry" />
        </mxCell>
        <mxCell id="4qVhP21Fqn_u6X29Lw7A-47" value="Добавить&amp;nbsp;&lt;div&gt;платежное&amp;nbsp;&lt;/div&gt;&lt;div&gt;средство&lt;/div&gt;" style="ellipse;whiteSpace=wrap;html=1;" parent="1" vertex="1">
          <mxGeometry x="-533" y="1290" width="120" height="80" as="geometry" />
        </mxCell>
        <mxCell id="4qVhP21Fqn_u6X29Lw7A-48" value="Просмотреть новости сервиса" style="ellipse;whiteSpace=wrap;html=1;" parent="1" vertex="1">
          <mxGeometry x="-533" y="1530" width="120" height="80" as="geometry" />
        </mxCell>
      </root>
    </mxGraphModel>
  </diagram>
</mxfile>
